<svg width="170" height="31" viewBox="0 0 170 31" fill="none" xmlns="http://www.w3.org/2000/svg">
<rect width="170" height="31" fill="black"/>
<path d="M48.302 11.088V11.368C48.0033 11.3773 47.7747 11.4147 47.616 11.48C47.4667 11.536 47.3687 11.648 47.322 11.816C47.2753 11.9747 47.252 12.2267 47.252 12.572V19.516C47.252 19.852 47.2753 20.104 47.322 20.272C47.378 20.44 47.4807 20.552 47.63 20.608C47.7793 20.664 48.0033 20.7013 48.302 20.72V21C48.05 20.9813 47.7327 20.972 47.35 20.972C46.9673 20.9627 46.58 20.958 46.188 20.958C45.7307 20.958 45.306 20.9627 44.914 20.972C44.5313 20.972 44.2187 20.9813 43.976 21V20.72C44.2747 20.7013 44.4987 20.664 44.648 20.608C44.7973 20.552 44.8953 20.44 44.942 20.272C44.998 20.104 45.026 19.852 45.026 19.516V12.572C45.026 12.2267 44.998 11.9747 44.942 11.816C44.8953 11.648 44.7927 11.536 44.634 11.48C44.4847 11.4147 44.2653 11.3773 43.976 11.368V11.088C44.2187 11.0973 44.5313 11.1067 44.914 11.116C45.306 11.1253 45.7307 11.13 46.188 11.13C46.58 11.13 46.9673 11.1253 47.35 11.116C47.7327 11.1067 48.05 11.0973 48.302 11.088ZM61.2657 11.088V11.368C60.967 11.4053 60.743 11.4847 60.5937 11.606C60.4443 11.718 60.3417 11.9 60.2857 12.152C60.239 12.404 60.2157 12.7587 60.2157 13.216V21.028C60.1037 21.0187 59.987 21.014 59.8657 21.014C59.7537 21.014 59.6323 21.0187 59.5017 21.028L53.4257 13.328V18.704C53.4257 19.2173 53.4537 19.614 53.5097 19.894C53.5657 20.1647 53.687 20.3607 53.8737 20.482C54.0697 20.594 54.373 20.6733 54.7837 20.72V21C54.6063 20.9813 54.373 20.972 54.0837 20.972C53.7943 20.9627 53.5237 20.958 53.2717 20.958C53.057 20.958 52.8377 20.9627 52.6137 20.972C52.3897 20.972 52.203 20.9813 52.0537 21V20.72C52.3523 20.6733 52.5763 20.594 52.7257 20.482C52.875 20.37 52.973 20.188 53.0197 19.936C53.0757 19.6747 53.1037 19.32 53.1037 18.872V12.572C53.1037 12.2267 53.0757 11.9747 53.0197 11.816C52.973 11.648 52.8703 11.536 52.7117 11.48C52.5623 11.4147 52.343 11.3773 52.0537 11.368V11.088C52.203 11.0973 52.3897 11.1067 52.6137 11.116C52.8377 11.1253 53.057 11.13 53.2717 11.13C53.4957 11.13 53.7103 11.1253 53.9157 11.116C54.121 11.1067 54.3077 11.0973 54.4757 11.088L59.8937 17.766V13.384C59.8937 12.8707 59.8657 12.4787 59.8097 12.208C59.7537 11.928 59.6277 11.7273 59.4317 11.606C59.245 11.4847 58.9463 11.4053 58.5357 11.368V11.088C58.713 11.0973 58.9463 11.1067 59.2357 11.116C59.525 11.1253 59.7957 11.13 60.0477 11.13C60.2717 11.13 60.491 11.1253 60.7057 11.116C60.9297 11.1067 61.1163 11.0973 61.2657 11.088ZM72.4332 11.088C72.3959 11.508 72.3679 11.914 72.3492 12.306C72.3399 12.698 72.3352 13.0013 72.3352 13.216C72.3352 13.4213 72.3399 13.6173 72.3492 13.804C72.3585 13.9907 72.3679 14.1493 72.3772 14.28H72.0552C71.9339 13.552 71.7659 12.9827 71.5512 12.572C71.3365 12.152 71.0705 11.8533 70.7532 11.676C70.4452 11.4987 70.0765 11.41 69.6472 11.41H69.1852C68.9145 11.41 68.7092 11.4333 68.5692 11.48C68.4292 11.5267 68.3359 11.62 68.2892 11.76C68.2425 11.9 68.2192 12.1147 68.2192 12.404V19.432C68.2192 19.796 68.2565 20.0667 68.3312 20.244C68.4059 20.4213 68.5505 20.538 68.7652 20.594C68.9799 20.65 69.2972 20.6827 69.7172 20.692V21C69.4279 20.9907 69.0545 20.9813 68.5972 20.972C68.1399 20.9627 67.6592 20.958 67.1552 20.958C66.7539 20.958 66.3619 20.9627 65.9792 20.972C65.5965 20.9813 65.2512 20.9907 64.9432 21V20.72C65.2419 20.7013 65.4659 20.664 65.6152 20.608C65.7645 20.552 65.8625 20.44 65.9092 20.272C65.9652 20.104 65.9932 19.852 65.9932 19.516V12.572C65.9932 12.2267 65.9652 11.9747 65.9092 11.816C65.8625 11.648 65.7599 11.536 65.6012 11.48C65.4519 11.4147 65.2325 11.3773 64.9432 11.368V11.088C65.3259 11.0973 65.7319 11.1067 66.1612 11.116C66.5905 11.116 67.0152 11.1207 67.4352 11.13C67.8552 11.13 68.2472 11.13 68.6112 11.13C68.9752 11.13 69.2739 11.13 69.5072 11.13C69.9365 11.13 70.4219 11.13 70.9632 11.13C71.5139 11.1207 72.0039 11.1067 72.4332 11.088ZM70.3472 15.932C70.3472 15.932 70.3472 15.9787 70.3472 16.072C70.3472 16.1653 70.3472 16.212 70.3472 16.212H67.7992C67.7992 16.212 67.7992 16.1653 67.7992 16.072C67.7992 15.9787 67.7992 15.932 67.7992 15.932H70.3472ZM70.6972 14.084C70.6599 14.616 70.6412 15.022 70.6412 15.302C70.6505 15.582 70.6552 15.8387 70.6552 16.072C70.6552 16.3053 70.6599 16.562 70.6692 16.842C70.6785 17.122 70.7019 17.528 70.7392 18.06H70.4172C70.3612 17.7333 70.2725 17.43 70.1512 17.15C70.0299 16.87 69.8525 16.646 69.6192 16.478C69.3859 16.3007 69.0825 16.212 68.7092 16.212V15.932C68.9892 15.932 69.2225 15.876 69.4092 15.764C69.6052 15.6427 69.7685 15.4887 69.8992 15.302C70.0299 15.106 70.1325 14.9007 70.2072 14.686C70.2819 14.4713 70.3379 14.2707 70.3752 14.084H70.6972ZM80.3543 11.088V11.368C80.0557 11.3773 79.827 11.4147 79.6683 11.48C79.519 11.536 79.421 11.648 79.3743 11.816C79.3277 11.9747 79.3043 12.2267 79.3043 12.572V19.516C79.3043 19.852 79.3277 20.104 79.3743 20.272C79.4303 20.44 79.533 20.552 79.6823 20.608C79.8317 20.664 80.0557 20.7013 80.3543 20.72V21C80.1023 20.9813 79.785 20.972 79.4023 20.972C79.0197 20.9627 78.6323 20.958 78.2403 20.958C77.783 20.958 77.3583 20.9627 76.9663 20.972C76.5837 20.972 76.271 20.9813 76.0283 21V20.72C76.327 20.7013 76.551 20.664 76.7003 20.608C76.8497 20.552 76.9477 20.44 76.9943 20.272C77.0503 20.104 77.0783 19.852 77.0783 19.516V12.572C77.0783 12.2267 77.0503 11.9747 76.9943 11.816C76.9477 11.648 76.845 11.536 76.6863 11.48C76.537 11.4147 76.3177 11.3773 76.0283 11.368V11.088C76.271 11.0973 76.5837 11.1067 76.9663 11.116C77.3583 11.1253 77.783 11.13 78.2403 11.13C78.6323 11.13 79.0197 11.1253 79.4023 11.116C79.785 11.1067 80.1023 11.0973 80.3543 11.088ZM93.318 11.088V11.368C93.0193 11.4053 92.7954 11.4847 92.646 11.606C92.4967 11.718 92.394 11.9 92.338 12.152C92.2914 12.404 92.268 12.7587 92.268 13.216V21.028C92.156 21.0187 92.0394 21.014 91.918 21.014C91.806 21.014 91.6847 21.0187 91.554 21.028L85.478 13.328V18.704C85.478 19.2173 85.506 19.614 85.562 19.894C85.618 20.1647 85.7393 20.3607 85.926 20.482C86.122 20.594 86.4253 20.6733 86.836 20.72V21C86.6587 20.9813 86.4253 20.972 86.136 20.972C85.8467 20.9627 85.576 20.958 85.324 20.958C85.1093 20.958 84.89 20.9627 84.666 20.972C84.442 20.972 84.2553 20.9813 84.106 21V20.72C84.4047 20.6733 84.6287 20.594 84.778 20.482C84.9273 20.37 85.0253 20.188 85.072 19.936C85.128 19.6747 85.156 19.32 85.156 18.872V12.572C85.156 12.2267 85.128 11.9747 85.072 11.816C85.0253 11.648 84.9227 11.536 84.764 11.48C84.6147 11.4147 84.3953 11.3773 84.106 11.368V11.088C84.2553 11.0973 84.442 11.1067 84.666 11.116C84.89 11.1253 85.1093 11.13 85.324 11.13C85.548 11.13 85.7627 11.1253 85.968 11.116C86.1733 11.1067 86.36 11.0973 86.528 11.088L91.946 17.766V13.384C91.946 12.8707 91.918 12.4787 91.862 12.208C91.806 11.928 91.68 11.7273 91.484 11.606C91.2974 11.4847 90.9987 11.4053 90.588 11.368V11.088C90.7654 11.0973 90.9987 11.1067 91.288 11.116C91.5774 11.1253 91.848 11.13 92.1 11.13C92.324 11.13 92.5434 11.1253 92.758 11.116C92.982 11.1067 93.1687 11.0973 93.318 11.088ZM101.322 11.088V11.368C101.023 11.3773 100.794 11.4147 100.636 11.48C100.486 11.536 100.388 11.648 100.342 11.816C100.295 11.9747 100.272 12.2267 100.272 12.572V19.516C100.272 19.852 100.295 20.104 100.342 20.272C100.398 20.44 100.5 20.552 100.65 20.608C100.799 20.664 101.023 20.7013 101.322 20.72V21C101.07 20.9813 100.752 20.972 100.37 20.972C99.9869 20.9627 99.5995 20.958 99.2075 20.958C98.7502 20.958 98.3255 20.9627 97.9335 20.972C97.5509 20.972 97.2382 20.9813 96.9955 21V20.72C97.2942 20.7013 97.5182 20.664 97.6675 20.608C97.8169 20.552 97.9149 20.44 97.9615 20.272C98.0175 20.104 98.0455 19.852 98.0455 19.516V12.572C98.0455 12.2267 98.0175 11.9747 97.9615 11.816C97.9149 11.648 97.8122 11.536 97.6535 11.48C97.5042 11.4147 97.2849 11.3773 96.9955 11.368V11.088C97.2382 11.0973 97.5509 11.1067 97.9335 11.116C98.3255 11.1253 98.7502 11.13 99.2075 11.13C99.5995 11.13 99.9869 11.1253 100.37 11.116C100.752 11.1067 101.07 11.0973 101.322 11.088ZM113.571 11.088C113.534 11.564 113.506 12.0213 113.487 12.46C113.478 12.8987 113.473 13.2347 113.473 13.468C113.473 13.6733 113.478 13.8693 113.487 14.056C113.497 14.2427 113.506 14.4013 113.515 14.532H113.193C113.044 13.748 112.853 13.1273 112.619 12.67C112.395 12.2127 112.125 11.8907 111.807 11.704C111.49 11.508 111.117 11.41 110.687 11.41H110.365V19.404C110.365 19.7773 110.403 20.0573 110.477 20.244C110.561 20.4307 110.711 20.5567 110.925 20.622C111.14 20.678 111.453 20.7107 111.863 20.72V21C111.574 20.9907 111.187 20.9813 110.701 20.972C110.225 20.9627 109.726 20.958 109.203 20.958C108.69 20.958 108.205 20.9627 107.747 20.972C107.29 20.9813 106.921 20.9907 106.641 21V20.72C107.061 20.7107 107.379 20.678 107.593 20.622C107.808 20.5567 107.953 20.4307 108.027 20.244C108.102 20.0573 108.139 19.7773 108.139 19.404V11.41H107.831C107.402 11.41 107.029 11.508 106.711 11.704C106.394 11.8907 106.123 12.2127 105.899 12.67C105.675 13.118 105.479 13.7387 105.311 14.532H104.989C105.008 14.4013 105.017 14.2427 105.017 14.056C105.027 13.8693 105.031 13.6733 105.031 13.468C105.031 13.2347 105.022 12.8987 105.003 12.46C104.994 12.0213 104.971 11.564 104.933 11.088C105.363 11.0973 105.829 11.1067 106.333 11.116C106.847 11.1253 107.36 11.13 107.873 11.13C108.387 11.13 108.849 11.13 109.259 11.13C109.679 11.13 110.141 11.13 110.645 11.13C111.159 11.13 111.672 11.1253 112.185 11.116C112.699 11.1067 113.161 11.0973 113.571 11.088ZM124.701 11.088C124.663 11.4987 124.635 11.8953 124.617 12.278C124.607 12.6607 124.603 12.9547 124.603 13.16C124.603 13.3467 124.607 13.524 124.617 13.692C124.626 13.86 124.635 14 124.645 14.112H124.323C124.229 13.4307 124.085 12.894 123.889 12.502C123.693 12.1007 123.436 11.8207 123.119 11.662C122.811 11.494 122.447 11.41 122.027 11.41H121.453C121.182 11.41 120.977 11.4333 120.837 11.48C120.697 11.5267 120.603 11.62 120.557 11.76C120.51 11.9 120.487 12.1147 120.487 12.404V19.684C120.487 19.9733 120.51 20.188 120.557 20.328C120.603 20.468 120.697 20.5613 120.837 20.608C120.977 20.6547 121.182 20.678 121.453 20.678H122.139C122.559 20.678 122.927 20.5893 123.245 20.412C123.571 20.2253 123.847 19.9127 124.071 19.474C124.304 19.0353 124.481 18.4427 124.603 17.696H124.925C124.897 17.9947 124.883 18.3867 124.883 18.872C124.883 19.0867 124.887 19.39 124.897 19.782C124.906 20.174 124.934 20.58 124.981 21C124.505 20.9813 123.968 20.972 123.371 20.972C122.773 20.9627 122.241 20.958 121.775 20.958C121.541 20.958 121.243 20.958 120.879 20.958C120.515 20.958 120.123 20.9627 119.703 20.972C119.283 20.972 118.858 20.9767 118.429 20.986C117.999 20.986 117.593 20.9907 117.211 21V20.72C117.509 20.7013 117.733 20.664 117.883 20.608C118.032 20.552 118.13 20.44 118.177 20.272C118.233 20.104 118.261 19.852 118.261 19.516V12.572C118.261 12.2267 118.233 11.9747 118.177 11.816C118.13 11.648 118.027 11.536 117.869 11.48C117.719 11.4147 117.5 11.3773 117.211 11.368V11.088C117.593 11.0973 117.999 11.1067 118.429 11.116C118.858 11.116 119.283 11.1207 119.703 11.13C120.123 11.13 120.515 11.13 120.879 11.13C121.243 11.13 121.541 11.13 121.775 11.13C122.204 11.13 122.689 11.13 123.231 11.13C123.781 11.1207 124.271 11.1067 124.701 11.088ZM122.517 15.876C122.517 15.876 122.517 15.9227 122.517 16.016C122.517 16.1093 122.517 16.156 122.517 16.156H120.067C120.067 16.156 120.067 16.1093 120.067 16.016C120.067 15.9227 120.067 15.876 120.067 15.876H122.517ZM122.923 14.028C122.885 14.56 122.867 14.966 122.867 15.246C122.876 15.526 122.881 15.7827 122.881 16.016C122.881 16.2493 122.885 16.506 122.895 16.786C122.904 17.066 122.927 17.472 122.965 18.004H122.643C122.596 17.6773 122.507 17.374 122.377 17.094C122.255 16.814 122.078 16.59 121.845 16.422C121.611 16.2447 121.308 16.156 120.935 16.156V15.876C121.215 15.876 121.453 15.82 121.649 15.708C121.845 15.5867 122.003 15.4327 122.125 15.246C122.255 15.05 122.358 14.8447 122.433 14.63C122.507 14.4153 122.563 14.2147 122.601 14.028H122.923Z" fill="white"/>
</svg>
